<svg version="1.1" id="Layer_1" xmlns="http://www.w3.org/2000/svg" xmlns:xlink="http://www.w3.org/1999/xlink" x="0px" y="0px"
	 width="100%" viewBox="0 0 7739 2233" enable-background="new 0 0 7739 2233" xml:space="preserve">
<path fill="#010101" opacity="1.000000" stroke="none" 
	d="
M5552.000000,2240.000000 
	C3701.333252,2240.000000 1852.666626,2240.000000 4.000000,2240.000000 
	C4.000000,1494.666626 4.000000,749.333313 4.000000,4.000001 
	C2584.000000,4.000000 5164.000000,4.000000 7744.000000,4.000000 
	C7744.000000,749.333313 7744.000000,1494.666626 7744.000000,2240.000000 
	C7014.000000,2240.000000 6284.000000,2240.000000 5552.000000,2240.000000 
M3730.125732,367.882050 
	C3673.498047,326.868744 3616.834961,285.904297 3560.260010,244.818085 
	C3537.621338,228.377258 3515.126953,211.736389 3492.659668,195.061249 
	C3471.425537,179.301163 3448.094482,171.772934 3421.465088,175.629990 
	C3408.021973,177.577133 3395.664551,182.506714 3384.189941,189.237961 
	C3328.298096,222.025299 3296.051025,270.843018 3286.921875,334.907990 
	C3282.991699,362.489807 3290.834473,386.434967 3311.236816,405.483704 
	C3322.399658,415.906036 3334.318848,425.638336 3346.618408,434.702911 
	C3404.537109,477.387848 3462.705078,519.734924 3520.785400,562.200500 
	C3537.454346,574.388062 3554.025146,586.712952 3570.832764,598.706116 
	C3583.510742,607.752380 3597.576172,614.543274 3613.281006,614.328857 
	C3628.407227,614.122314 3639.978027,620.411133 3651.527588,628.863586 
	C3709.586670,671.354126 3767.635498,713.865723 3826.159912,755.709961 
	C3844.636230,768.920410 3853.755615,785.697876 3853.166260,808.121216 
	C3852.851074,820.105591 3852.354004,832.091064 3852.342529,844.076477 
	C3852.268066,922.071777 3852.005127,1000.069092 3852.501953,1078.061401 
	C3852.635986,1099.126465 3849.950195,1118.855225 3840.226318,1137.925903 
	C3829.329590,1159.296509 3829.815674,1181.610352 3839.347412,1203.650757 
	C3841.989258,1209.760254 3844.975098,1215.739990 3847.277832,1221.973511 
	C3854.921143,1242.663208 3855.787354,1263.717041 3848.574219,1284.601318 
	C3845.119385,1294.603271 3840.512695,1304.294434 3835.583496,1313.683105 
	C3823.207275,1337.256470 3809.801025,1360.301392 3797.850098,1384.081909 
	C3787.260010,1405.154541 3773.982178,1423.796265 3757.283447,1440.540894 
	C3734.709717,1463.177124 3719.125732,1490.102905 3714.353516,1522.276978 
	C3710.132080,1550.738525 3696.343994,1574.870361 3681.412842,1598.707520 
	C3673.907471,1610.690186 3663.901123,1615.953735 3649.914795,1615.763062 
	C3629.930664,1615.490601 3609.935547,1616.179932 3589.944580,1616.236328 
	C3490.005615,1616.518799 3390.055420,1615.276367 3290.141602,1618.670532 
	C3267.509766,1619.439453 3244.875732,1620.137939 3222.242188,1620.858643 
	C3176.992188,1622.299561 3131.744629,1623.814331 3086.491211,1625.136963 
	C3062.543213,1625.836914 3038.581543,1626.055664 3014.633545,1626.752197 
	C2991.334961,1627.429810 2968.032471,1628.182129 2944.755615,1629.368774 
	C2914.855469,1630.893066 2884.998291,1633.911987 2855.088623,1634.463135 
	C2788.497559,1635.690430 2722.019531,1638.966309 2655.532959,1642.607056 
	C2588.391846,1646.283691 2521.184082,1648.735474 2454.038574,1652.339600 
	C2408.838623,1654.765625 2363.677979,1658.012695 2318.533447,1661.350586 
	C2276.706299,1664.443359 2234.937256,1668.319580 2193.117920,1671.528442 
	C2153.953857,1674.533813 2114.750488,1677.018799 2075.580078,1679.943970 
	C2063.634521,1680.835938 2051.766846,1683.138306 2039.819092,1683.575073 
	C1988.505981,1685.450439 1937.750366,1693.237549 1886.672974,1697.583374 
	C1852.174805,1700.518677 1817.759644,1704.429443 1783.307617,1707.906616 
	C1739.574341,1712.320435 1695.758423,1716.051758 1652.128784,1721.324585 
	C1596.595459,1728.036011 1541.195068,1735.865112 1485.769897,1743.450317 
	C1408.585571,1754.013062 1331.343750,1764.207275 1254.292603,1775.674561 
	C1194.381714,1784.590820 1134.597534,1794.505615 1074.984619,1805.240356 
	C985.251648,1821.398926 895.895935,1839.540649 807.097351,1860.296875 
	C698.862915,1885.596313 591.893616,1915.299927 486.918457,1952.037354 
	C415.196106,1977.137573 345.673859,2007.096680 279.269745,2044.106812 
	C272.350494,2047.963257 265.325256,2052.225098 259.711426,2057.696289 
	C249.944717,2067.214600 247.090958,2079.247803 250.857880,2092.617432 
	C253.729004,2102.807373 260.236755,2106.684326 270.493958,2103.260010 
	C276.120575,2101.381836 281.444031,2098.427979 286.665375,2095.529053 
	C360.209595,2054.695068 437.664276,2022.900513 517.244263,1996.122803 
	C670.129333,1944.678833 826.597412,1906.988037 984.842407,1876.672241 
	C1064.589844,1861.394775 1144.766357,1848.221191 1224.974243,1835.520020 
	C1315.072266,1821.252441 1405.311401,1807.757202 1495.701416,1795.489990 
	C1570.259766,1785.371460 1645.081421,1777.117432 1719.873047,1768.817993 
	C1778.779419,1762.281372 1837.828491,1757.039185 1896.794678,1751.029907 
	C1957.738892,1744.819214 2018.598633,1737.742188 2079.829102,1734.688965 
	C2099.107178,1733.727661 2118.358887,1732.160889 2137.604004,1730.635254 
	C2165.476562,1728.425781 2193.322266,1725.871948 2221.198242,1723.708984 
	C2244.430908,1721.906250 2267.694580,1720.504883 2290.937988,1718.837769 
	C2354.680664,1714.265869 2418.389648,1709.157349 2482.170654,1705.209839 
	C2529.344971,1702.290161 2576.623291,1701.094727 2623.830811,1698.654785 
	C2644.424561,1697.590454 2664.931641,1694.906494 2685.521973,1693.717896 
	C2717.419189,1691.876709 2749.352539,1690.654419 2781.273193,1689.229004 
	C2813.859375,1687.773804 2846.453613,1686.490356 2879.035400,1684.941895 
	C2901.643799,1683.867554 2924.222900,1682.063232 2946.839355,1681.303955 
	C2994.754883,1679.695312 3042.684082,1678.451416 3090.612549,1677.252563 
	C3148.532471,1675.803711 3206.458252,1674.600098 3264.379883,1673.208862 
	C3317.638184,1671.929565 3370.886963,1670.031860 3424.152100,1669.333252 
	C3488.778564,1668.485474 3553.417969,1668.594727 3618.052002,1668.355957 
	C3621.350342,1668.343750 3624.742676,1668.575684 3627.931152,1669.351685 
	C3634.263672,1670.892944 3637.480713,1677.336548 3635.196045,1683.393066 
	C3632.284668,1691.110596 3626.734375,1696.744751 3620.725342,1702.172729 
	C3614.822998,1707.504639 3608.585205,1712.800903 3604.006836,1719.195679 
	C3593.116211,1734.406860 3594.962646,1751.778564 3608.964844,1764.065796 
	C3614.797119,1769.183716 3622.078613,1773.286621 3629.392090,1775.959473 
	C3650.994141,1783.854248 3673.549561,1785.995605 3696.308105,1783.111694 
	C3710.135010,1781.359375 3723.878418,1778.559570 3736.753662,1772.655762 
	C3754.670654,1764.440430 3760.765869,1754.822266 3759.572021,1734.993774 
	C3759.256836,1729.759033 3757.817871,1724.547852 3756.510498,1719.423950 
	C3749.798096,1693.112549 3764.920654,1671.323486 3791.745850,1668.215820 
	C3806.159424,1666.546021 3818.066162,1670.468140 3827.227295,1681.879272 
	C3838.243896,1695.602417 3852.920166,1702.249023 3869.947510,1705.261719 
	C3891.174316,1709.017700 3912.507324,1708.514526 3933.713135,1706.845093 
	C3954.125977,1705.238281 3972.527100,1697.760254 3986.662842,1681.943970 
	C3988.871826,1679.472778 3991.321289,1677.121460 3993.995850,1675.177368 
	C4013.008545,1661.355835 4050.717773,1664.819946 4056.156250,1701.770142 
	C4056.918457,1706.949219 4056.369385,1712.385498 4055.914551,1717.658447 
	C4055.573486,1721.613892 4054.245361,1725.473145 4053.639160,1729.418579 
	C4050.210449,1751.734741 4057.480713,1764.571533 4078.538330,1773.602051 
	C4079.760986,1774.126343 4080.923828,1774.811401 4082.176025,1775.241821 
	C4116.785645,1787.138550 4151.441895,1787.219849 4185.952637,1775.062988 
	C4191.501465,1773.108154 4196.934570,1770.053101 4201.573242,1766.422363 
	C4218.651855,1753.053345 4220.593750,1731.942871 4206.398926,1715.497192 
	C4202.951660,1711.503296 4198.405273,1708.477051 4194.546875,1704.813843 
	C4190.217773,1700.703003 4185.434082,1696.845215 4182.018066,1692.044800 
	C4174.497070,1681.476440 4180.141113,1670.171509 4192.992188,1669.351196 
	C4196.283691,1669.140991 4199.644531,1669.484009 4202.936035,1669.881714 
	C4240.026367,1674.363281 4277.328125,1674.930176 4314.600098,1675.619507 
	C4383.201172,1676.888062 4451.812988,1677.605225 4520.415527,1678.817627 
	C4541.719238,1679.194214 4563.013184,1680.318481 4584.302734,1681.291382 
	C4629.512695,1683.357300 4674.700684,1686.036743 4719.927734,1687.567017 
	C4777.830078,1689.526123 4835.781738,1690.061768 4893.673340,1692.237671 
	C4935.568359,1693.812256 4977.393066,1697.202515 5019.263184,1699.523438 
	C5076.429688,1702.692505 5133.614746,1705.522827 5190.782715,1708.670532 
	C5239.967773,1711.378662 5289.060547,1715.453003 5338.185059,1718.969482 
	C5391.313477,1722.772705 5444.432129,1726.402222 5497.492676,1731.201294 
	C5565.787109,1737.378296 5634.211426,1742.108276 5702.548340,1747.836914 
	C5735.063477,1750.562500 5767.526855,1753.958862 5799.976074,1757.405518 
	C5843.020508,1761.977295 5886.019531,1766.977295 5929.054199,1771.641479 
	C5971.431152,1776.234253 6013.856445,1780.388794 6056.208984,1785.187622 
	C6108.488281,1791.110962 6160.748535,1797.228149 6212.953125,1803.772217 
	C6257.219238,1809.321167 6301.458496,1815.159546 6345.594238,1821.658325 
	C6401.588379,1829.903320 6457.514160,1838.640259 6513.379883,1847.717896 
	C6588.288086,1859.889893 6663.290039,1871.610718 6737.929688,1885.282471 
	C6868.878418,1909.268921 6998.838867,1937.909180 7127.604004,1971.859619 
	C7234.448242,2000.030396 7340.236328,2031.505981 7443.187500,2071.911865 
	C7464.850586,2080.414062 7486.178223,2089.767334 7507.814453,2098.340332 
	C7516.405273,2101.744629 7524.937012,2105.859619 7534.686035,2105.162842 
	C7539.802734,2104.797119 7543.472168,2102.878662 7545.563965,2097.969971 
	C7552.640625,2081.364258 7547.452637,2063.639404 7532.086914,2054.552002 
	C7525.255859,2050.511719 7517.773438,2047.532837 7510.472656,2044.331787 
	C7444.639648,2015.467651 7377.081055,1991.241089 7308.609375,1969.496338 
	C7221.725586,1941.904419 7133.884277,1917.714355 7045.322266,1896.166382 
	C6955.422363,1874.292603 6864.939941,1855.051270 6774.028809,1837.887695 
	C6719.738281,1827.637939 6665.373047,1817.733276 6610.903320,1808.490723 
	C6555.114746,1799.024414 6499.213379,1790.180176 6443.256348,1781.759644 
	C6391.896973,1774.030884 6340.410645,1767.137939 6288.956055,1760.051147 
	C6253.328125,1755.143921 6217.680176,1750.369629 6182.003418,1745.834473 
	C6145.003906,1741.131104 6107.982910,1736.573486 6070.926758,1732.344849 
	C6029.901367,1727.663330 5988.733887,1724.137939 5947.791992,1718.840698 
	C5875.116211,1709.437134 5802.184570,1702.830933 5729.184082,1696.734253 
	C5660.836914,1691.026123 5592.521973,1684.920654 5524.186035,1679.075806 
	C5467.136719,1674.196411 5410.112305,1668.946899 5353.011230,1664.764648 
	C5291.934570,1660.291260 5230.791992,1656.692505 5169.658203,1653.046631 
	C5099.891113,1648.886108 5030.112793,1644.890625 4960.316895,1641.242188 
	C4931.718262,1639.747192 4903.046875,1639.697266 4874.437012,1638.362549 
	C4837.880371,1636.656982 4801.371094,1633.860596 4764.807617,1632.367432 
	C4720.240234,1630.547607 4675.620117,1630.021484 4631.055664,1628.146851 
	C4585.139648,1626.215454 4539.284668,1623.377930 4493.269043,1624.077637 
	C4464.640625,1624.512817 4435.970703,1623.559570 4407.344238,1622.534546 
	C4366.785156,1621.082520 4326.262695,1618.507202 4285.698242,1617.317383 
	C4251.069824,1616.301880 4216.403809,1616.597778 4181.755371,1616.235229 
	C4173.094238,1616.144653 4164.406250,1616.117432 4155.786621,1615.393677 
	C4147.532715,1614.700562 4140.494141,1611.188843 4135.697754,1603.998535 
	C4119.393555,1579.554565 4104.824707,1554.671021 4099.102051,1524.941528 
	C4091.745605,1486.723022 4073.793213,1453.786743 4044.090332,1427.613159 
	C4037.258545,1421.593262 4031.486084,1413.770020 4027.015625,1405.776001 
	C4007.849854,1371.503052 3989.167480,1336.955078 3970.686523,1302.305786 
	C3961.068848,1284.274170 3957.033691,1264.973145 3959.442383,1244.400513 
	C3960.869629,1232.211426 3965.613281,1221.352539 3971.018066,1210.597534 
	C3983.480957,1185.798828 3984.524658,1160.555542 3971.933350,1135.680054 
	C3962.637451,1117.315430 3959.381836,1098.260742 3959.492920,1077.835083 
	C3959.855713,1011.178772 3959.428467,944.518250 3959.325439,877.859314 
	C3959.320312,874.635620 3958.770996,871.092773 3963.724854,869.263489 
	C3966.790527,872.037292 3970.290527,874.943970 3973.491699,878.149109 
	C3983.636719,888.306641 3990.783936,899.801086 3991.775391,914.777527 
	C3992.629639,927.678772 3998.529785,939.132751 4005.203857,949.903870 
	C4014.673584,965.186768 4024.363281,980.373657 4034.763672,995.030762 
	C4051.109131,1018.065796 4079.429932,1023.815125 4103.822754,1009.713440 
	C4112.022949,1004.972961 4118.751465,998.618713 4124.064941,990.745117 
	C4128.161621,984.675415 4132.199219,978.549438 4136.627930,972.725647 
	C4140.996094,966.981079 4146.273926,966.167603 4152.283203,970.325989 
	C4161.195801,976.493408 4168.415527,984.060913 4172.077637,994.690979 
	C4174.888672,1002.849182 4177.645508,1011.181641 4181.756836,1018.709961 
	C4201.845215,1055.494995 4247.687012,1063.007080 4278.640625,1034.732910 
	C4283.527832,1030.268799 4287.980469,1025.175781 4291.910156,1019.840393 
	C4313.640137,990.338196 4335.278320,960.765686 4356.631836,930.990295 
	C4361.643555,924.001099 4366.299316,916.499329 4369.621094,908.603394 
	C4379.391113,885.380676 4374.722656,864.252747 4358.186035,845.707581 
	C4344.884766,830.791809 4327.442383,824.736694 4308.020508,825.354248 
	C4290.397461,825.914673 4275.756348,820.204285 4261.930176,809.643372 
	C4239.172363,792.259705 4215.721191,775.784241 4192.591309,758.886536 
	C4151.707520,729.018555 4110.886719,699.064270 4069.940186,669.283142 
	C4061.738525,663.317871 4053.887695,657.042542 4050.070068,647.401794 
	C4042.121582,627.328613 4027.381592,613.317139 4010.394043,601.004028 
	C3968.323730,570.509399 3926.354004,539.875732 3884.383057,509.243683 
	C3852.637207,486.074249 3820.986328,462.774292 3789.219238,439.633972 
	C3779.948975,432.881226 3771.053467,425.767609 3767.402100,414.396851 
	C3761.207275,395.104462 3748.701904,380.891724 3730.125732,367.882050 
M3266.011963,1151.676758 
	C3248.015869,1151.673828 3230.019775,1151.713257 3212.023926,1151.654053 
	C3198.631348,1151.610107 3187.604736,1147.296997 3179.379395,1135.803223 
	C3170.082275,1122.811768 3159.690918,1110.606201 3149.890625,1097.969849 
	C3147.041260,1094.296387 3144.354492,1090.453003 3142.010498,1086.443481 
	C3139.331543,1081.861694 3140.368652,1076.639771 3144.884033,1074.284790 
	C3150.144043,1071.541382 3155.814209,1069.513672 3161.436279,1067.546997 
	C3185.287598,1059.203125 3209.354492,1051.506714 3232.164551,1040.375488 
	C3333.860352,990.748474 3380.366943,906.730347 3382.404541,796.316528 
	C3383.135742,756.695129 3373.029785,718.458252 3355.889160,682.493408 
	C3344.325928,658.230774 3329.002930,636.463562 3309.360352,618.049927 
	C3284.933350,595.150696 3257.740479,575.997986 3227.963867,560.651123 
	C3175.988770,533.863403 3120.468750,522.632751 3062.256348,522.679138 
	C2887.617920,522.818237 2712.979248,522.712585 2538.340820,522.774780 
	C2529.024170,522.778076 2519.687988,523.176819 2510.395508,523.862549 
	C2495.396240,524.969360 2490.083740,529.811401 2488.850342,544.599976 
	C2487.855469,556.531189 2487.712402,568.558716 2487.709717,580.543640 
	C2487.651367,847.167297 2487.663086,1113.790894 2487.676025,1380.414551 
	C2487.676270,1387.077515 2487.709473,1393.745605 2487.973877,1400.401489 
	C2488.131592,1404.383789 2488.502197,1408.397583 2489.242188,1412.309204 
	C2491.189941,1422.605591 2497.519287,1429.059204 2507.784912,1430.627563 
	C2515.645752,1431.828735 2523.697998,1432.205322 2531.665771,1432.216187 
	C2611.652832,1432.325195 2691.639893,1432.340698 2771.626953,1432.208984 
	C2781.600098,1432.192505 2791.665283,1431.838867 2801.521973,1430.456787 
	C2816.402832,1428.369751 2821.172363,1423.410156 2822.669434,1408.522583 
	C2823.866455,1396.615234 2824.238281,1384.584595 2824.265869,1372.607056 
	C2824.412842,1309.284180 2824.326660,1245.960938 2824.349854,1182.637817 
	C2824.351807,1177.309937 2824.051758,1171.908813 2824.799805,1166.671509 
	C2825.899902,1158.967407 2833.895996,1155.925537 2839.708252,1160.899170 
	C2844.758545,1165.220703 2849.477295,1169.957520 2854.102783,1174.742920 
	C2878.640137,1200.128784 2903.129395,1225.561401 2927.582520,1251.028564 
	C2956.648682,1281.300171 2985.699463,1311.586914 3014.684082,1341.936768 
	C3034.467285,1362.652222 3053.996582,1383.611694 3073.877930,1404.231934 
	C3091.772217,1422.791382 3113.026611,1432.721313 3139.625977,1432.504395 
	C3216.275146,1431.878784 3292.933350,1432.411255 3369.586670,1432.142700 
	C3380.838867,1432.103394 3392.179932,1430.775269 3403.309570,1428.985596 
	C3418.664062,1426.516357 3422.217041,1422.317505 3423.475098,1406.770874 
	C3424.173340,1398.148804 3424.290527,1389.462646 3424.300049,1380.804932 
	C3424.366211,1321.481201 3424.360107,1262.157349 3424.303955,1202.833618 
	C3424.296387,1194.841675 3423.976807,1186.845459 3423.602539,1178.860474 
	C3423.447754,1175.559570 3422.989990,1172.235107 3422.285156,1169.005249 
	C3420.560791,1161.100708 3415.702148,1155.885254 3407.750000,1154.324463 
	C3401.912109,1153.178589 3395.907715,1152.375732 3389.969727,1152.323730 
	C3349.983643,1151.973267 3309.995361,1151.864136 3266.011963,1151.676758 
M7168.685547,717.269165 
	C7138.043945,678.631958 7107.364746,640.024475 7076.778320,601.344177 
	C7063.552246,584.618713 7050.499023,567.757141 7037.401367,550.930908 
	C7028.612305,539.639648 7018.023926,530.322266 7004.139160,526.563110 
	C6994.659668,523.996704 6984.510254,522.926941 6974.653809,522.886597 
	C6902.659668,522.592224 6830.663574,522.695190 6758.668457,522.774231 
	C6750.684082,522.783020 6742.670410,523.103577 6734.724121,523.854370 
	C6720.883301,525.162231 6715.937012,529.461304 6713.863770,543.436096 
	C6712.502930,552.608154 6712.392578,562.023804 6712.390137,571.330627 
	C6712.319824,841.313171 6712.329102,1111.295776 6712.354492,1381.278320 
	C6712.354980,1387.936523 6712.446777,1394.610718 6712.918945,1401.247314 
	C6713.247559,1405.864868 6714.070801,1410.482300 6715.082031,1415.008179 
	C6716.666016,1422.094360 6721.022461,1427.110474 6728.155762,1428.631714 
	C6735.926270,1430.288818 6743.875977,1432.081299 6751.753418,1432.108276 
	C6827.747559,1432.368652 6903.743164,1432.296387 6979.738281,1432.214966 
	C6985.046387,1432.209229 6990.450684,1431.859253 6995.643066,1430.828857 
	C7009.759766,1428.027588 7015.050781,1422.482544 7016.449219,1408.043457 
	C7017.730469,1394.817383 7018.655273,1381.499878 7018.694336,1368.219604 
	C7018.906250,1296.224854 7018.758789,1224.229126 7018.847656,1152.233887 
	C7018.857422,1144.364258 7017.537598,1136.240845 7021.542969,1128.903198 
	C7026.338379,1126.299805 7030.951660,1126.679199 7034.501465,1130.378540 
	C7039.104004,1135.174438 7043.175293,1140.493286 7047.329102,1145.703491 
	C7081.391602,1188.430542 7115.416504,1231.187500 7149.460938,1273.929565 
	C7184.334961,1317.713257 7219.375488,1361.365479 7254.017578,1405.332275 
	C7267.666504,1422.656006 7284.395020,1432.439087 7306.939453,1432.370239 
	C7382.933594,1432.137939 7458.929199,1432.339233 7534.924316,1432.177246 
	C7542.198242,1432.161621 7549.604492,1431.400879 7556.713379,1429.881592 
	C7570.418945,1426.952148 7574.909180,1421.907349 7575.974609,1408.303223 
	C7576.857910,1397.026123 7577.158203,1385.677612 7577.160645,1374.360596 
	C7577.222656,1111.044312 7577.208008,847.727966 7577.207520,584.411621 
	C7577.207520,577.078796 7577.426758,569.736511 7577.127441,562.415771 
	C7576.828125,555.102783 7576.546875,547.715881 7575.280273,540.533630 
	C7573.538086,530.657593 7567.803711,525.351013 7557.799316,524.206848 
	C7549.212891,523.224792 7540.519043,522.801575 7531.872070,522.788635 
	C7460.543457,522.681763 7389.214355,522.693359 7317.885742,522.776733 
	C7309.902344,522.786072 7301.886719,523.127258 7293.944336,523.909302 
	C7280.116699,525.270874 7274.656738,529.995544 7273.031738,543.487732 
	C7271.762695,554.031494 7271.730957,564.763672 7271.717773,575.412842 
	C7271.619141,652.741028 7271.669434,730.069458 7271.653320,807.397766 
	C7271.652344,812.726990 7271.861816,818.095276 7271.295898,823.372803 
	C7270.858887,827.449158 7269.001953,831.055542 7261.895508,830.966797 
	C7257.460449,826.219971 7251.700684,820.769531 7246.765625,814.653503 
	C7221.236816,783.013184 7195.918945,751.202698 7168.685547,717.269165 
M5460.318359,838.697571 
	C5450.172363,883.613953 5443.873535,928.876465 5443.317383,975.124512 
	C5442.589355,1035.592407 5450.283691,1094.673340 5468.367188,1152.239990 
	C5492.548828,1229.220581 5535.102051,1293.989014 5599.322754,1343.699219 
	C5638.639160,1374.132690 5682.455566,1396.114624 5729.290527,1412.469116 
	C5788.195801,1433.038330 5849.111816,1443.000977 5911.107422,1446.586792 
	C5952.299805,1448.969360 5993.549805,1450.625244 6034.733398,1444.695190 
	C6059.740234,1441.094360 6085.137695,1440.080444 6110.062500,1436.059692 
	C6174.996094,1425.584961 6236.556152,1404.836304 6293.219727,1371.055420 
	C6352.177246,1335.906860 6399.163086,1288.795288 6432.808105,1228.623291 
	C6468.931641,1164.018433 6486.101074,1093.969482 6491.404785,1020.885986 
	C6495.720215,961.422607 6490.227051,902.492126 6475.998535,844.486389 
	C6447.867188,729.799561 6383.171387,642.199646 6280.109863,584.400757 
	C6207.038574,543.421082 6127.433105,522.297180 6044.185547,516.312256 
	C6006.388184,513.594971 5968.278320,514.532898 5930.322754,514.951477 
	C5907.070312,515.208008 5883.759277,516.828369 5860.617676,519.220093 
	C5790.397461,526.477173 5723.854492,546.238586 5661.264648,579.195496 
	C5593.531738,614.860413 5539.819824,664.989807 5502.123535,731.886963 
	C5483.717285,764.551331 5470.830078,799.404846 5460.318359,838.697571 
M1820.117920,517.506897 
	C1785.543701,515.403625 1750.960815,515.041077 1716.313477,515.460754 
	C1681.599487,515.881287 1647.180298,518.231995 1612.850586,523.476501 
	C1551.134277,532.904602 1492.392822,551.355591 1437.063843,580.254211 
	C1353.586182,623.855042 1292.657471,688.509094 1257.443237,776.208618 
	C1236.465698,828.452271 1224.555664,883.140076 1220.622681,939.202454 
	C1215.973633,1005.466919 1222.912842,1070.743652 1240.009766,1135.128906 
	C1269.550415,1246.376587 1334.956421,1328.638916 1436.683838,1382.056763 
	C1509.214966,1420.143311 1587.316162,1438.323242 1668.449097,1443.285645 
	C1705.622681,1445.559326 1743.055054,1443.996704 1780.362183,1443.536377 
	C1800.976196,1443.282227 1821.642822,1442.465942 1842.166504,1440.595215 
	C1915.247803,1433.933350 1984.582520,1413.730347 2049.602783,1379.794189 
	C2127.204834,1339.291504 2184.664795,1279.318237 2221.101074,1199.349487 
	C2244.834961,1147.259521 2258.089111,1092.398193 2263.212646,1035.794556 
	C2269.256836,969.019409 2264.965576,902.702698 2247.650635,837.570557 
	C2232.943359,782.247925 2209.784180,731.020447 2174.058350,685.952087 
	C2126.036621,625.372681 2064.415039,583.610168 1992.569580,556.513672 
	C1938.113770,535.975769 1881.819824,523.034485 1820.117920,517.506897 
M826.002441,1432.292236 
	C877.990479,1432.291992 929.979553,1432.458984 981.965881,1432.159424 
	C993.225220,1432.094604 1004.606873,1431.109619 1015.693176,1429.177246 
	C1027.489014,1427.121216 1031.544922,1422.225830 1032.657227,1410.316040 
	C1033.831299,1397.743408 1034.701660,1385.089722 1034.717407,1372.470093 
	C1034.867065,1252.497437 1034.806641,1132.524292 1034.806641,1012.551331 
	C1034.806641,867.250732 1034.869751,721.950134 1034.689697,576.649719 
	C1034.674805,564.719421 1033.535522,552.720093 1031.949341,540.882690 
	C1030.465942,529.812744 1024.567627,524.821289 1013.167175,523.990051 
	C1002.546692,523.215637 991.877686,522.785645 981.229187,522.769287 
	C913.244629,522.664856 845.259827,522.684631 777.275269,522.759705 
	C769.292908,522.768494 761.279968,523.025635 753.335632,523.757629 
	C736.622742,525.297424 731.296814,530.329529 729.593506,547.418762 
	C728.473022,558.660461 728.390747,570.036072 728.375122,581.352478 
	C728.275818,653.336121 728.352783,725.319946 728.277100,797.303650 
	C728.270081,803.945618 728.004883,810.640625 727.130859,817.214172 
	C726.152405,824.572754 721.286316,829.290161 714.213196,830.733032 
	C708.400879,831.918701 702.325562,832.202332 696.365417,832.214539 
	C644.377380,832.320923 592.388977,832.288574 540.400696,832.255127 
	C535.743103,832.252136 531.021667,832.383728 526.440918,831.704163 
	C515.454407,830.074402 509.818146,824.436707 508.529510,813.504395 
	C507.752197,806.909668 507.729431,800.203186 507.710632,793.545898 
	C507.629761,764.885925 507.774780,736.225159 507.653717,707.565491 
	C507.442566,657.593079 507.159637,607.620667 506.721680,557.649902 
	C506.669769,551.724854 505.654602,545.779724 504.742676,539.897095 
	C503.182281,529.831543 496.540649,525.027161 486.945587,524.048218 
	C479.666718,523.305542 472.329071,522.787903 465.016785,522.778503 
	C392.366608,522.685181 319.716217,522.676453 247.066055,522.776184 
	C239.088181,522.787109 231.054626,523.178955 223.147141,524.183411 
	C210.369247,525.806396 205.382217,530.249878 203.430054,542.842896 
	C201.908783,552.656250 201.284897,562.701355 201.280853,572.643921 
	C201.171402,841.916443 201.193436,1111.189087 201.193787,1380.461670 
	C201.193787,1385.127319 200.887390,1389.818970 201.276291,1394.452271 
	C201.831635,1401.068359 202.578842,1407.702881 203.828094,1414.217529 
	C205.333771,1422.069458 210.061432,1427.595947 218.084579,1429.113647 
	C225.887802,1430.589722 233.843735,1432.102783 241.737122,1432.126953 
	C317.052704,1432.357056 392.369293,1432.310181 467.685394,1432.212158 
	C473.649384,1432.204346 479.698120,1431.679199 485.556763,1430.586548 
	C496.361969,1428.571045 503.709198,1422.680664 505.059723,1410.989136 
	C505.517151,1407.028809 506.554535,1403.109985 506.723846,1399.146484 
	C507.207123,1387.835449 507.623932,1376.511230 507.636047,1365.191895 
	C507.713959,1292.541626 507.652985,1219.891235 507.716187,1147.240967 
	C507.721985,1140.592041 507.888275,1133.896729 508.677734,1127.306396 
	C509.735565,1118.475952 514.873596,1112.546021 523.667175,1110.754761 
	C530.144775,1109.435303 536.816040,1108.422363 543.405334,1108.397339 
	C593.393311,1108.207031 643.382690,1108.210449 693.370728,1108.395996 
	C699.966064,1108.420532 706.609802,1109.511963 713.135437,1110.655151 
	C721.313782,1112.088013 726.116333,1117.578003 727.195801,1125.529053 
	C728.177185,1132.756592 728.273010,1140.141846 728.280090,1147.458008 
	C728.351318,1221.441284 728.294128,1295.424683 728.361633,1369.407959 
	C728.370117,1378.728394 728.709106,1388.057739 729.204834,1397.366577 
	C730.567749,1422.955444 734.307800,1431.270386 764.024597,1432.014526 
	C783.341309,1432.498291 802.677002,1432.225952 826.002441,1432.292236 
M4426.793457,1385.611328 
	C4427.080566,1392.931396 4427.063965,1400.278687 4427.718750,1407.565674 
	C4429.062500,1422.535522 4432.967773,1427.501099 4448.265625,1429.830200 
	C4460.703613,1431.723755 4473.456543,1432.182129 4486.070801,1432.188843 
	C4726.000000,1432.316895 4965.929688,1432.287476 5205.858887,1432.263428 
	C5213.185059,1432.262695 5220.534180,1432.266479 5227.829590,1431.709229 
	C5233.093750,1431.307129 5238.323242,1430.147461 5243.501953,1429.019531 
	C5251.510254,1427.275024 5256.536133,1421.975830 5257.854980,1414.158447 
	C5259.286621,1405.669434 5260.205566,1396.986450 5260.229980,1388.384888 
	C5260.418945,1323.071289 5260.367188,1257.756958 5260.283203,1192.442993 
	C5260.274414,1185.796753 5260.214355,1179.030640 5259.024414,1172.531372 
	C5256.730957,1160.002563 5250.321777,1154.019409 5237.473145,1152.649658 
	C5228.226562,1151.663818 5218.844238,1151.717651 5209.522461,1151.713013 
	C5097.555664,1151.656982 4985.588379,1151.678101 4873.621582,1151.672485 
	C4868.290527,1151.672241 4862.900879,1152.079590 4857.648926,1151.419434 
	C4853.954590,1150.954956 4850.447754,1149.000244 4846.237305,1147.488281 
	C4851.415527,1136.501831 4860.495605,1130.564697 4868.532227,1123.854492 
	C4973.882812,1035.890991 5079.329590,948.042236 5184.763184,860.177979 
	C5201.141113,846.529175 5217.694824,833.088684 5233.945312,819.290649 
	C5250.451172,805.276123 5260.413574,787.974976 5260.374023,765.606079 
	C5260.254395,697.626282 5260.391602,629.646057 5260.229492,561.666504 
	C5260.211914,554.390320 5259.448730,547.003906 5258.020996,539.870911 
	C5256.127441,530.408691 5250.047852,524.607361 5240.089355,523.982056 
	C5230.123535,523.356384 5220.132324,522.791199 5210.151855,522.781860 
	C5115.513184,522.693359 5020.874023,522.728943 4926.235352,522.729065 
	C4775.612793,522.729187 4624.990723,522.701355 4474.368164,522.793518 
	C4464.395508,522.799622 4454.369629,523.240234 4444.467773,524.360046 
	C4435.627930,525.359680 4429.808105,530.926147 4428.520996,539.820435 
	C4427.380859,547.700684 4426.882324,555.737549 4426.866211,563.706726 
	C4426.739746,627.687622 4426.760254,691.668945 4426.840332,755.649963 
	C4426.849121,762.966736 4427.136230,770.323181 4427.937988,777.590271 
	C4429.404785,790.893188 4434.520508,796.455200 4447.827637,798.638000 
	C4454.347168,799.707458 4461.098145,799.620056 4467.744629,799.623840 
	C4565.049316,799.679565 4662.354004,799.659912 4759.658691,799.663818 
	C4782.305664,799.664734 4804.953125,799.658813 4827.600098,799.736328 
	C4830.237305,799.745361 4832.907715,800.089722 4835.500977,800.595215 
	C4839.780762,801.429443 4841.877441,806.873413 4838.935059,809.752563 
	C4835.138672,813.466858 4831.093750,816.942200 4827.012207,820.348633 
	C4706.811523,920.679932 4586.581543,1020.976501 4466.398926,1121.330078 
	C4457.710938,1128.584595 4449.224609,1136.093384 4440.868652,1143.729126 
	C4432.671875,1151.219727 4427.893066,1160.480225 4427.590332,1171.808350 
	C4427.394043,1179.128784 4426.836426,1186.445312 4426.829590,1193.764038 
	C4426.767090,1256.412231 4426.793457,1319.060425 4426.793457,1385.611328 
z"/>
<path fill="#FBFCFC" opacity="1.000000" stroke="none" 
	d="
M3731.312012,368.673798 
	C3748.701904,380.891724 3761.207275,395.104462 3767.402100,414.396851 
	C3771.053467,425.767609 3779.948975,432.881226 3789.219238,439.633972 
	C3820.986328,462.774292 3852.637207,486.074249 3884.383057,509.243683 
	C3926.354004,539.875732 3968.323730,570.509399 4010.394043,601.004028 
	C4027.381592,613.317139 4042.121582,627.328613 4050.070068,647.401794 
	C4053.887695,657.042542 4061.738525,663.317871 4069.940186,669.283142 
	C4110.886719,699.064270 4151.707520,729.018555 4192.591309,758.886536 
	C4215.721191,775.784241 4239.172363,792.259705 4261.930176,809.643372 
	C4275.756348,820.204285 4290.397461,825.914673 4308.020508,825.354248 
	C4327.442383,824.736694 4344.884766,830.791809 4358.186035,845.707581 
	C4374.722656,864.252747 4379.391113,885.380676 4369.621094,908.603394 
	C4366.299316,916.499329 4361.643555,924.001099 4356.631836,930.990295 
	C4335.278320,960.765686 4313.640137,990.338196 4291.910156,1019.840393 
	C4287.980469,1025.175781 4283.527832,1030.268799 4278.640625,1034.732910 
	C4247.687012,1063.007080 4201.845215,1055.494995 4181.756836,1018.709961 
	C4177.645508,1011.181641 4174.888672,1002.849182 4172.077637,994.690979 
	C4168.415527,984.060913 4161.195801,976.493408 4152.283203,970.325989 
	C4146.273926,966.167603 4140.996094,966.981079 4136.627930,972.725647 
	C4132.199219,978.549438 4128.161621,984.675415 4124.064941,990.745117 
	C4118.751465,998.618713 4112.022949,1004.972961 4103.822754,1009.713440 
	C4079.429932,1023.815125 4051.109131,1018.065796 4034.763672,995.030762 
	C4024.363281,980.373657 4014.673584,965.186768 4005.203857,949.903870 
	C3998.529785,939.132751 3992.629639,927.678772 3991.775391,914.777527 
	C3990.783936,899.801086 3983.636719,888.306641 3973.491699,878.149109 
	C3970.290527,874.943970 3966.790527,872.037292 3963.724854,869.263489 
	C3958.770996,871.092773 3959.320312,874.635620 3959.325439,877.859314 
	C3959.428467,944.518250 3959.855713,1011.178772 3959.492920,1077.835083 
	C3959.381836,1098.260742 3962.637451,1117.315430 3971.933350,1135.680054 
	C3984.524658,1160.555542 3983.480957,1185.798828 3971.018066,1210.597534 
	C3965.613281,1221.352539 3960.869629,1232.211426 3959.442383,1244.400513 
	C3957.033691,1264.973145 3961.068848,1284.274170 3970.686523,1302.305786 
	C3989.167480,1336.955078 4007.849854,1371.503052 4027.015625,1405.776001 
	C4031.486084,1413.770020 4037.258545,1421.593262 4044.090332,1427.613159 
	C4073.793213,1453.786743 4091.745605,1486.723022 4099.102051,1524.941528 
	C4104.824707,1554.671021 4119.393555,1579.554565 4135.697754,1603.998535 
	C4140.494141,1611.188843 4147.532715,1614.700562 4155.786621,1615.393677 
	C4164.406250,1616.117432 4173.094238,1616.144653 4181.755371,1616.235229 
	C4216.403809,1616.597778 4251.069824,1616.301880 4285.698242,1617.317383 
	C4326.262695,1618.507202 4366.785156,1621.082520 4407.344238,1622.534546 
	C4435.970703,1623.559570 4464.640625,1624.512817 4493.269043,1624.077637 
	C4539.284668,1623.377930 4585.139648,1626.215454 4631.055664,1628.146851 
	C4675.620117,1630.021484 4720.240234,1630.547607 4764.807617,1632.367432 
	C4801.371094,1633.860596 4837.880371,1636.656982 4874.437012,1638.362549 
	C4903.046875,1639.697266 4931.718262,1639.747192 4960.316895,1641.242188 
	C5030.112793,1644.890625 5099.891113,1648.886108 5169.658203,1653.046631 
	C5230.791992,1656.692505 5291.934570,1660.291260 5353.011230,1664.764648 
	C5410.112305,1668.946899 5467.136719,1674.196411 5524.186035,1679.075806 
	C5592.521973,1684.920654 5660.836914,1691.026123 5729.184082,1696.734253 
	C5802.184570,1702.830933 5875.116211,1709.437134 5947.791992,1718.840698 
	C5988.733887,1724.137939 6029.901367,1727.663330 6070.926758,1732.344849 
	C6107.982910,1736.573486 6145.003906,1741.131104 6182.003418,1745.834473 
	C6217.680176,1750.369629 6253.328125,1755.143921 6288.956055,1760.051147 
	C6340.410645,1767.137939 6391.896973,1774.030884 6443.256348,1781.759644 
	C6499.213379,1790.180176 6555.114746,1799.024414 6610.903320,1808.490723 
	C6665.373047,1817.733276 6719.738281,1827.637939 6774.028809,1837.887695 
	C6864.939941,1855.051270 6955.422363,1874.292603 7045.322266,1896.166382 
	C7133.884277,1917.714355 7221.725586,1941.904419 7308.609375,1969.496338 
	C7377.081055,1991.241089 7444.639648,2015.467651 7510.472656,2044.331787 
	C7517.773438,2047.532837 7525.255859,2050.511719 7532.086914,2054.552002 
	C7547.452637,2063.639404 7552.640625,2081.364258 7545.563965,2097.969971 
	C7543.472168,2102.878662 7539.802734,2104.797119 7534.686035,2105.162842 
	C7524.937012,2105.859619 7516.405273,2101.744629 7507.814453,2098.340332 
	C7486.178223,2089.767334 7464.850586,2080.414062 7443.187500,2071.911865 
	C7340.236328,2031.505981 7234.448242,2000.030396 7127.604004,1971.859619 
	C6998.838867,1937.909180 6868.878418,1909.268921 6737.929688,1885.282471 
	C6663.290039,1871.610718 6588.288086,1859.889893 6513.379883,1847.717896 
	C6457.514160,1838.640259 6401.588379,1829.903320 6345.594238,1821.658325 
	C6301.458496,1815.159546 6257.219238,1809.321167 6212.953125,1803.772217 
	C6160.748535,1797.228149 6108.488281,1791.110962 6056.208984,1785.187622 
	C6013.856445,1780.388794 5971.431152,1776.234253 5929.054199,1771.641479 
	C5886.019531,1766.977295 5843.020508,1761.977295 5799.976074,1757.405518 
	C5767.526855,1753.958862 5735.063477,1750.562500 5702.548340,1747.836914 
	C5634.211426,1742.108276 5565.787109,1737.378296 5497.492676,1731.201294 
	C5444.432129,1726.402222 5391.313477,1722.772705 5338.185059,1718.969482 
	C5289.060547,1715.453003 5239.967773,1711.378662 5190.782715,1708.670532 
	C5133.614746,1705.522827 5076.429688,1702.692505 5019.263184,1699.523438 
	C4977.393066,1697.202515 4935.568359,1693.812256 4893.673340,1692.237671 
	C4835.781738,1690.061768 4777.830078,1689.526123 4719.927734,1687.567017 
	C4674.700684,1686.036743 4629.512695,1683.357300 4584.302734,1681.291382 
	C4563.013184,1680.318481 4541.719238,1679.194214 4520.415527,1678.817627 
	C4451.812988,1677.605225 4383.201172,1676.888062 4314.600098,1675.619507 
	C4277.328125,1674.930176 4240.026367,1674.363281 4202.936035,1669.881714 
	C4199.644531,1669.484009 4196.283691,1669.140991 4192.992188,1669.351196 
	C4180.141113,1670.171509 4174.497070,1681.476440 4182.018066,1692.044800 
	C4185.434082,1696.845215 4190.217773,1700.703003 4194.546875,1704.813843 
	C4198.405273,1708.477051 4202.951660,1711.503296 4206.398926,1715.497192 
	C4220.593750,1731.942871 4218.651855,1753.053345 4201.573242,1766.422363 
	C4196.934570,1770.053101 4191.501465,1773.108154 4185.952637,1775.062988 
	C4151.441895,1787.219849 4116.785645,1787.138550 4082.176025,1775.241821 
	C4080.923828,1774.811401 4079.760986,1774.126343 4078.538330,1773.602051 
	C4057.480713,1764.571533 4050.210449,1751.734741 4053.639160,1729.418579 
	C4054.245361,1725.473145 4055.573486,1721.613892 4055.914551,1717.658447 
	C4056.369385,1712.385498 4056.918457,1706.949219 4056.156250,1701.770142 
	C4050.717773,1664.819946 4013.008545,1661.355835 3993.995850,1675.177368 
	C3991.321289,1677.121460 3988.871826,1679.472778 3986.662842,1681.943970 
	C3972.527100,1697.760254 3954.125977,1705.238281 3933.713135,1706.845093 
	C3912.507324,1708.514526 3891.174316,1709.017700 3869.947510,1705.261719 
	C3852.920166,1702.249023 3838.243896,1695.602417 3827.227295,1681.879272 
	C3818.066162,1670.468140 3806.159424,1666.546021 3791.745850,1668.215820 
	C3764.920654,1671.323486 3749.798096,1693.112549 3756.510498,1719.423950 
	C3757.817871,1724.547852 3759.256836,1729.759033 3759.572021,1734.993774 
	C3760.765869,1754.822266 3754.670654,1764.440430 3736.753662,1772.655762 
	C3723.878418,1778.559570 3710.135010,1781.359375 3696.308105,1783.111694 
	C3673.549561,1785.995605 3650.994141,1783.854248 3629.392090,1775.959473 
	C3622.078613,1773.286621 3614.797119,1769.183716 3608.964844,1764.065796 
	C3594.962646,1751.778564 3593.116211,1734.406860 3604.006836,1719.195679 
	C3608.585205,1712.800903 3614.822998,1707.504639 3620.725342,1702.172729 
	C3626.734375,1696.744751 3632.284668,1691.110596 3635.196045,1683.393066 
	C3637.480713,1677.336548 3634.263672,1670.892944 3627.931152,1669.351685 
	C3624.742676,1668.575684 3621.350342,1668.343750 3618.052002,1668.355957 
	C3553.417969,1668.594727 3488.778564,1668.485474 3424.152100,1669.333252 
	C3370.886963,1670.031860 3317.638184,1671.929565 3264.379883,1673.208862 
	C3206.458252,1674.600098 3148.532471,1675.803711 3090.612549,1677.252563 
	C3042.684082,1678.451416 2994.754883,1679.695312 2946.839355,1681.303955 
	C2924.222900,1682.063232 2901.643799,1683.867554 2879.035400,1684.941895 
	C2846.453613,1686.490356 2813.859375,1687.773804 2781.273193,1689.229004 
	C2749.352539,1690.654419 2717.419189,1691.876709 2685.521973,1693.717896 
	C2664.931641,1694.906494 2644.424561,1697.590454 2623.830811,1698.654785 
	C2576.623291,1701.094727 2529.344971,1702.290161 2482.170654,1705.209839 
	C2418.389648,1709.157349 2354.680664,1714.265869 2290.937988,1718.837769 
	C2267.694580,1720.504883 2244.430908,1721.906250 2221.198242,1723.708984 
	C2193.322266,1725.871948 2165.476562,1728.425781 2137.604004,1730.635254 
	C2118.358887,1732.160889 2099.107178,1733.727661 2079.829102,1734.688965 
	C2018.598633,1737.742188 1957.738892,1744.819214 1896.794678,1751.029907 
	C1837.828491,1757.039185 1778.779419,1762.281372 1719.873047,1768.817993 
	C1645.081421,1777.117432 1570.259766,1785.371460 1495.701416,1795.489990 
	C1405.311401,1807.757202 1315.072266,1821.252441 1224.974243,1835.520020 
	C1144.766357,1848.221191 1064.589844,1861.394775 984.842407,1876.672241 
	C826.597412,1906.988037 670.129333,1944.678833 517.244263,1996.122803 
	C437.664276,2022.900513 360.209595,2054.695068 286.665375,2095.529053 
	C281.444031,2098.427979 276.120575,2101.381836 270.493958,2103.260010 
	C260.236755,2106.684326 253.729004,2102.807373 250.857880,2092.617432 
	C247.090958,2079.247803 249.944717,2067.214600 259.711426,2057.696289 
	C265.325256,2052.225098 272.350494,2047.963257 279.269745,2044.106812 
	C345.673859,2007.096680 415.196106,1977.137573 486.918457,1952.037354 
	C591.893616,1915.299927 698.862915,1885.596313 807.097351,1860.296875 
	C895.895935,1839.540649 985.251648,1821.398926 1074.984619,1805.240356 
	C1134.597534,1794.505615 1194.381714,1784.590820 1254.292603,1775.674561 
	C1331.343750,1764.207275 1408.585571,1754.013062 1485.769897,1743.450317 
	C1541.195068,1735.865112 1596.595459,1728.036011 1652.128784,1721.324585 
	C1695.758423,1716.051758 1739.574341,1712.320435 1783.307617,1707.906616 
	C1817.759644,1704.429443 1852.174805,1700.518677 1886.672974,1697.583374 
	C1937.750366,1693.237549 1988.505981,1685.450439 2039.819092,1683.575073 
	C2051.766846,1683.138306 2063.634521,1680.835938 2075.580078,1679.943970 
	C2114.750488,1677.018799 2153.953857,1674.533813 2193.117920,1671.528442 
	C2234.937256,1668.319580 2276.706299,1664.443359 2318.533447,1661.350586 
	C2363.677979,1658.012695 2408.838623,1654.765625 2454.038574,1652.339600 
	C2521.184082,1648.735474 2588.391846,1646.283691 2655.532959,1642.607056 
	C2722.019531,1638.966309 2788.497559,1635.690430 2855.088623,1634.463135 
	C2884.998291,1633.911987 2914.855469,1630.893066 2944.755615,1629.368774 
	C2968.032471,1628.182129 2991.334961,1627.429810 3014.633545,1626.752197 
	C3038.581543,1626.055664 3062.543213,1625.836914 3086.491211,1625.136963 
	C3131.744629,1623.814331 3176.992188,1622.299561 3222.242188,1620.858643 
	C3244.875732,1620.137939 3267.509766,1619.439453 3290.141602,1618.670532 
	C3390.055420,1615.276367 3490.005615,1616.518799 3589.944580,1616.236328 
	C3609.935547,1616.179932 3629.930664,1615.490601 3649.914795,1615.763062 
	C3663.901123,1615.953735 3673.907471,1610.690186 3681.412842,1598.707520 
	C3696.343994,1574.870361 3710.132080,1550.738525 3714.353516,1522.276978 
	C3719.125732,1490.102905 3734.709717,1463.177124 3757.283447,1440.540894 
	C3773.982178,1423.796265 3787.260010,1405.154541 3797.850098,1384.081909 
	C3809.801025,1360.301392 3823.207275,1337.256470 3835.583496,1313.683105 
	C3840.512695,1304.294434 3845.119385,1294.603271 3848.574219,1284.601318 
	C3855.787354,1263.717041 3854.921143,1242.663208 3847.277832,1221.973511 
	C3844.975098,1215.739990 3841.989258,1209.760254 3839.347412,1203.650757 
	C3829.815674,1181.610352 3829.329590,1159.296509 3840.226318,1137.925903 
	C3849.950195,1118.855225 3852.635986,1099.126465 3852.501953,1078.061401 
	C3852.005127,1000.069092 3852.268066,922.071777 3852.342529,844.076477 
	C3852.354004,832.091064 3852.851074,820.105591 3853.166260,808.121216 
	C3853.755615,785.697876 3844.636230,768.920410 3826.159912,755.709961 
	C3767.635498,713.865723 3709.586670,671.354126 3651.527588,628.863586 
	C3639.978027,620.411133 3628.407227,614.122314 3613.281006,614.328857 
	C3597.576172,614.543274 3583.510742,607.752380 3570.832764,598.706116 
	C3554.025146,586.712952 3537.454346,574.388062 3520.785400,562.200500 
	C3462.705078,519.734924 3404.537109,477.387848 3346.618408,434.702911 
	C3334.318848,425.638336 3322.399658,415.906036 3311.236816,405.483704 
	C3290.834473,386.434967 3282.991699,362.489807 3286.921875,334.907990 
	C3296.051025,270.843018 3328.298096,222.025299 3384.189941,189.237961 
	C3395.664551,182.506714 3408.021973,177.577133 3421.465088,175.629990 
	C3448.094482,171.772934 3471.425537,179.301163 3492.659668,195.061249 
	C3515.126953,211.736389 3537.621338,228.377258 3560.260010,244.818085 
	C3616.834961,285.904297 3673.498047,326.868744 3731.312012,368.673798 
M3965.545898,1607.598145 
	C3975.409912,1616.487549 3986.515869,1617.969116 3998.553711,1612.865723 
	C4003.233887,1610.881470 4005.480713,1606.429077 4004.448242,1601.596802 
	C4003.906006,1599.058228 4003.062988,1596.490723 4001.852783,1594.202393 
	C3990.441895,1572.627686 3978.997559,1551.069092 3967.272705,1529.665161 
	C3966.451660,1528.166504 3963.317627,1527.934937 3960.210938,1526.696045 
	C3960.210938,1549.395996 3960.007568,1570.459961 3960.375732,1591.514038 
	C3960.453125,1595.938965 3962.630615,1600.327026 3965.545898,1607.598145 
M3852.266357,1592.270020 
	C3852.266357,1572.514648 3852.266357,1552.759155 3852.266357,1533.861206 
	C3846.195068,1529.896240 3843.474365,1533.138306 3841.598633,1536.693237 
	C3831.421387,1555.981445 3821.447510,1575.377319 3811.466309,1594.768433 
	C3810.261963,1597.108765 3809.210205,1599.578857 3808.484863,1602.102905 
	C3807.245361,1606.417114 3808.700195,1610.092896 3812.494873,1612.311523 
	C3821.828613,1617.768677 3831.571289,1616.669434 3841.161377,1613.136719 
	C3849.049316,1610.231079 3851.719482,1603.704102 3852.266357,1592.270020 
z"/>
<path fill="#FEFEFE" opacity="1.000000" stroke="none" 
	d="
M3268.009766,1151.676758 
	C3309.995361,1151.864136 3349.983643,1151.973267 3389.969727,1152.323730 
	C3395.907715,1152.375732 3401.912109,1153.178589 3407.750000,1154.324463 
	C3415.702148,1155.885254 3420.560791,1161.100708 3422.285156,1169.005249 
	C3422.989990,1172.235107 3423.447754,1175.559570 3423.602539,1178.860474 
	C3423.976807,1186.845459 3424.296387,1194.841675 3424.303955,1202.833618 
	C3424.360107,1262.157349 3424.366211,1321.481201 3424.300049,1380.804932 
	C3424.290527,1389.462646 3424.173340,1398.148804 3423.475098,1406.770874 
	C3422.217041,1422.317505 3418.664062,1426.516357 3403.309570,1428.985596 
	C3392.179932,1430.775269 3380.838867,1432.103394 3369.586670,1432.142700 
	C3292.933350,1432.411255 3216.275146,1431.878784 3139.625977,1432.504395 
	C3113.026611,1432.721313 3091.772217,1422.791382 3073.877930,1404.231934 
	C3053.996582,1383.611694 3034.467285,1362.652222 3014.684082,1341.936768 
	C2985.699463,1311.586914 2956.648682,1281.300171 2927.582520,1251.028564 
	C2903.129395,1225.561401 2878.640137,1200.128784 2854.102783,1174.742920 
	C2849.477295,1169.957520 2844.758545,1165.220703 2839.708252,1160.899170 
	C2833.895996,1155.925537 2825.899902,1158.967407 2824.799805,1166.671509 
	C2824.051758,1171.908813 2824.351807,1177.309937 2824.349854,1182.637817 
	C2824.326660,1245.960938 2824.412842,1309.284180 2824.265869,1372.607056 
	C2824.238281,1384.584595 2823.866455,1396.615234 2822.669434,1408.522583 
	C2821.172363,1423.410156 2816.402832,1428.369751 2801.521973,1430.456787 
	C2791.665283,1431.838867 2781.600098,1432.192505 2771.626953,1432.208984 
	C2691.639893,1432.340698 2611.652832,1432.325195 2531.665771,1432.216187 
	C2523.697998,1432.205322 2515.645752,1431.828735 2507.784912,1430.627563 
	C2497.519287,1429.059204 2491.189941,1422.605591 2489.242188,1412.309204 
	C2488.502197,1408.397583 2488.131592,1404.383789 2487.973877,1400.401489 
	C2487.709473,1393.745605 2487.676270,1387.077515 2487.676025,1380.414551 
	C2487.663086,1113.790894 2487.651367,847.167297 2487.709717,580.543640 
	C2487.712402,568.558716 2487.855469,556.531189 2488.850342,544.599976 
	C2490.083740,529.811401 2495.396240,524.969360 2510.395508,523.862549 
	C2519.687988,523.176819 2529.024170,522.778076 2538.340820,522.774780 
	C2712.979248,522.712585 2887.617920,522.818237 3062.256348,522.679138 
	C3120.468750,522.632751 3175.988770,533.863403 3227.963867,560.651123 
	C3257.740479,575.997986 3284.933350,595.150696 3309.360352,618.049927 
	C3329.002930,636.463562 3344.325928,658.230774 3355.889160,682.493408 
	C3373.029785,718.458252 3383.135742,756.695129 3382.404541,796.316528 
	C3380.366943,906.730347 3333.860352,990.748474 3232.164551,1040.375488 
	C3209.354492,1051.506714 3185.287598,1059.203125 3161.436279,1067.546997 
	C3155.814209,1069.513672 3150.144043,1071.541382 3144.884033,1074.284790 
	C3140.368652,1076.639771 3139.331543,1081.861694 3142.010498,1086.443481 
	C3144.354492,1090.453003 3147.041260,1094.296387 3149.890625,1097.969849 
	C3159.690918,1110.606201 3170.082275,1122.811768 3179.379395,1135.803223 
	C3187.604736,1147.296997 3198.631348,1151.610107 3212.023926,1151.654053 
	C3230.019775,1151.713257 3248.015869,1151.673828 3268.009766,1151.676758 
M3076.976318,825.286682 
	C3069.700684,792.829651 3051.404785,777.423096 3018.469727,776.290955 
	C3010.491699,776.016663 3002.492920,776.385071 2994.503662,776.391663 
	C2971.892578,776.410339 2949.280762,776.309875 2926.670410,776.418884 
	C2908.040771,776.508728 2889.347412,775.951477 2870.802734,777.314148 
	C2854.524170,778.510437 2849.832275,783.799866 2849.277588,800.121704 
	C2848.532227,822.048523 2848.502197,844.031921 2849.122803,865.963989 
	C2849.799561,889.882385 2853.871826,893.550232 2877.129639,894.780457 
	C2877.793701,894.815613 2878.461182,894.795532 2879.126953,894.795532 
	C2925.071533,894.796814 2971.016113,894.863403 3016.960449,894.757507 
	C3030.428955,894.726501 3043.334717,891.714600 3055.530762,885.932251 
	C3064.370850,881.741028 3070.989014,875.199463 3073.598877,865.715027 
	C3076.934814,853.591919 3080.465576,841.345215 3076.976318,825.286682 
z"/>
<path fill="#FEFEFE" opacity="1.000000" stroke="none" 
	d="
M7169.606445,718.360352 
	C7195.918945,751.202698 7221.236816,783.013184 7246.765625,814.653503 
	C7251.700684,820.769531 7257.460449,826.219971 7261.895508,830.966797 
	C7269.001953,831.055542 7270.858887,827.449158 7271.295898,823.372803 
	C7271.861816,818.095276 7271.652344,812.726990 7271.653320,807.397766 
	C7271.669434,730.069458 7271.619141,652.741028 7271.717773,575.412842 
	C7271.730957,564.763672 7271.762695,554.031494 7273.031738,543.487732 
	C7274.656738,529.995544 7280.116699,525.270874 7293.944336,523.909302 
	C7301.886719,523.127258 7309.902344,522.786072 7317.885742,522.776733 
	C7389.214355,522.693359 7460.543457,522.681763 7531.872070,522.788635 
	C7540.519043,522.801575 7549.212891,523.224792 7557.799316,524.206848 
	C7567.803711,525.351013 7573.538086,530.657593 7575.280273,540.533630 
	C7576.546875,547.715881 7576.828125,555.102783 7577.127441,562.415771 
	C7577.426758,569.736511 7577.207520,577.078796 7577.207520,584.411621 
	C7577.208008,847.727966 7577.222656,1111.044312 7577.160645,1374.360596 
	C7577.158203,1385.677612 7576.857910,1397.026123 7575.974609,1408.303223 
	C7574.909180,1421.907349 7570.418945,1426.952148 7556.713379,1429.881592 
	C7549.604492,1431.400879 7542.198242,1432.161621 7534.924316,1432.177246 
	C7458.929199,1432.339233 7382.933594,1432.137939 7306.939453,1432.370239 
	C7284.395020,1432.439087 7267.666504,1422.656006 7254.017578,1405.332275 
	C7219.375488,1361.365479 7184.334961,1317.713257 7149.460938,1273.929565 
	C7115.416504,1231.187500 7081.391602,1188.430542 7047.329102,1145.703491 
	C7043.175293,1140.493286 7039.104004,1135.174438 7034.501465,1130.378540 
	C7030.951660,1126.679199 7026.338379,1126.299805 7021.542969,1128.903198 
	C7017.537598,1136.240845 7018.857422,1144.364258 7018.847656,1152.233887 
	C7018.758789,1224.229126 7018.906250,1296.224854 7018.694336,1368.219604 
	C7018.655273,1381.499878 7017.730469,1394.817383 7016.449219,1408.043457 
	C7015.050781,1422.482544 7009.759766,1428.027588 6995.643066,1430.828857 
	C6990.450684,1431.859253 6985.046387,1432.209229 6979.738281,1432.214966 
	C6903.743164,1432.296387 6827.747559,1432.368652 6751.753418,1432.108276 
	C6743.875977,1432.081299 6735.926270,1430.288818 6728.155762,1428.631714 
	C6721.022461,1427.110474 6716.666016,1422.094360 6715.082031,1415.008179 
	C6714.070801,1410.482300 6713.247559,1405.864868 6712.918945,1401.247314 
	C6712.446777,1394.610718 6712.354980,1387.936523 6712.354492,1381.278320 
	C6712.329102,1111.295776 6712.319824,841.313171 6712.390137,571.330627 
	C6712.392578,562.023804 6712.502930,552.608154 6713.863770,543.436096 
	C6715.937012,529.461304 6720.883301,525.162231 6734.724121,523.854370 
	C6742.670410,523.103577 6750.684082,522.783020 6758.668457,522.774231 
	C6830.663574,522.695190 6902.659668,522.592224 6974.653809,522.886597 
	C6984.510254,522.926941 6994.659668,523.996704 7004.139160,526.563110 
	C7018.023926,530.322266 7028.612305,539.639648 7037.401367,550.930908 
	C7050.499023,567.757141 7063.552246,584.618713 7076.778320,601.344177 
	C7107.364746,640.024475 7138.043945,678.631958 7169.606445,718.360352 
z"/>
<path fill="#FEFEFE" opacity="1.000000" stroke="none" 
	d="
M5460.673340,837.090027 
	C5470.830078,799.404846 5483.717285,764.551331 5502.123535,731.886963 
	C5539.819824,664.989807 5593.531738,614.860413 5661.264648,579.195496 
	C5723.854492,546.238586 5790.397461,526.477173 5860.617676,519.220093 
	C5883.759277,516.828369 5907.070312,515.208008 5930.322754,514.951477 
	C5968.278320,514.532898 6006.388184,513.594971 6044.185547,516.312256 
	C6127.433105,522.297180 6207.038574,543.421082 6280.109863,584.400757 
	C6383.171387,642.199646 6447.867188,729.799561 6475.998535,844.486389 
	C6490.227051,902.492126 6495.720215,961.422607 6491.404785,1020.885986 
	C6486.101074,1093.969482 6468.931641,1164.018433 6432.808105,1228.623291 
	C6399.163086,1288.795288 6352.177246,1335.906860 6293.219727,1371.055420 
	C6236.556152,1404.836304 6174.996094,1425.584961 6110.062500,1436.059692 
	C6085.137695,1440.080444 6059.740234,1441.094360 6034.733398,1444.695190 
	C5993.549805,1450.625244 5952.299805,1448.969360 5911.107422,1446.586792 
	C5849.111816,1443.000977 5788.195801,1433.038330 5729.290527,1412.469116 
	C5682.455566,1396.114624 5638.639160,1374.132690 5599.322754,1343.699219 
	C5535.102051,1293.989014 5492.548828,1229.220581 5468.367188,1152.239990 
	C5450.283691,1094.673340 5442.589355,1035.592407 5443.317383,975.124512 
	C5443.873535,928.876465 5450.172363,883.613953 5460.673340,837.090027 
M5880.916504,1161.754517 
	C5923.337402,1176.454468 5966.663086,1179.555298 6010.743652,1171.419434 
	C6019.864746,1169.735962 6028.807129,1166.965576 6037.731445,1164.351929 
	C6087.964355,1149.640259 6117.355469,1115.846313 6127.541992,1065.044678 
	C6130.937988,1048.107666 6133.385254,1030.957520 6135.640137,1013.822510 
	C6137.198730,1001.980530 6138.945312,989.941284 6138.418457,978.087463 
	C6136.654297,938.397522 6125.771484,900.976868 6109.096191,864.953430 
	C6094.411621,833.231689 6070.497070,812.831848 6037.098633,803.948914 
	C6021.094727,799.692444 6004.610352,797.035278 5988.210938,794.517883 
	C5956.686523,789.678711 5925.843262,793.809265 5895.773926,803.712524 
	C5853.897461,817.504578 5825.171875,845.255920 5810.403320,886.839966 
	C5805.970215,899.323425 5802.915039,912.323547 5799.689453,925.202271 
	C5793.454590,950.097839 5795.860840,975.529785 5795.712891,1000.766663 
	C5795.497559,1037.401367 5805.233887,1071.783691 5820.966309,1104.552124 
	C5833.195801,1130.024170 5851.621582,1149.448730 5880.916504,1161.754517 
z"/>
<path fill="#FEFEFE" opacity="1.000000" stroke="none" 
	d="
M1821.932861,517.838745 
	C1881.819824,523.034485 1938.113770,535.975769 1992.569580,556.513672 
	C2064.415039,583.610168 2126.036621,625.372681 2174.058350,685.952087 
	C2209.784180,731.020447 2232.943359,782.247925 2247.650635,837.570557 
	C2264.965576,902.702698 2269.256836,969.019409 2263.212646,1035.794556 
	C2258.089111,1092.398193 2244.834961,1147.259521 2221.101074,1199.349487 
	C2184.664795,1279.318237 2127.204834,1339.291504 2049.602783,1379.794189 
	C1984.582520,1413.730347 1915.247803,1433.933350 1842.166504,1440.595215 
	C1821.642822,1442.465942 1800.976196,1443.282227 1780.362183,1443.536377 
	C1743.055054,1443.996704 1705.622681,1445.559326 1668.449097,1443.285645 
	C1587.316162,1438.323242 1509.214966,1420.143311 1436.683838,1382.056763 
	C1334.956421,1328.638916 1269.550415,1246.376587 1240.009766,1135.128906 
	C1222.912842,1070.743652 1215.973633,1005.466919 1220.622681,939.202454 
	C1224.555664,883.140076 1236.465698,828.452271 1257.443237,776.208618 
	C1292.657471,688.509094 1353.586182,623.855042 1437.063843,580.254211 
	C1492.392822,551.355591 1551.134277,532.904602 1612.850586,523.476501 
	C1647.180298,518.231995 1681.599487,515.881287 1716.313477,515.460754 
	C1750.960815,515.041077 1785.543701,515.403625 1821.932861,517.838745 
M1886.962646,871.363892 
	C1884.974609,867.160645 1883.095581,862.901611 1880.980713,858.763245 
	C1867.578857,832.538635 1846.633423,814.551819 1818.814697,805.846619 
	C1773.594971,791.696228 1727.638306,787.769287 1681.200928,800.430298 
	C1633.468994,813.444397 1600.514282,842.619812 1584.142944,889.658691 
	C1580.870239,899.062134 1578.046875,908.695923 1575.963623,918.426331 
	C1567.956055,955.826782 1568.050293,993.673584 1572.946655,1031.295166 
	C1576.563599,1059.085205 1585.505615,1085.607666 1599.010498,1110.469727 
	C1615.588013,1140.988159 1640.804321,1159.936157 1674.414429,1167.694336 
	C1686.056519,1170.381592 1697.904663,1172.362305 1709.756592,1173.921753 
	C1749.475952,1179.148071 1788.206665,1174.413330 1825.447144,1159.939453 
	C1865.555298,1144.350708 1890.868652,1115.066040 1900.264893,1073.041870 
	C1905.048218,1051.647827 1908.711060,1029.921265 1911.393066,1008.161743 
	C1914.249023,984.990479 1913.402588,961.780212 1908.619873,938.674011 
	C1904.008789,916.397644 1896.962402,895.038574 1886.962646,871.363892 
z"/>
<path fill="#FDFDFD" opacity="1.000000" stroke="none" 
	d="
M824.003296,1432.292236 
	C802.677002,1432.225952 783.341309,1432.498291 764.024597,1432.014526 
	C734.307800,1431.270386 730.567749,1422.955444 729.204834,1397.366577 
	C728.709106,1388.057739 728.370117,1378.728394 728.361633,1369.407959 
	C728.294128,1295.424683 728.351318,1221.441284 728.280090,1147.458008 
	C728.273010,1140.141846 728.177185,1132.756592 727.195801,1125.529053 
	C726.116333,1117.578003 721.313782,1112.088013 713.135437,1110.655151 
	C706.609802,1109.511963 699.966064,1108.420532 693.370728,1108.395996 
	C643.382690,1108.210449 593.393311,1108.207031 543.405334,1108.397339 
	C536.816040,1108.422363 530.144775,1109.435303 523.667175,1110.754761 
	C514.873596,1112.546021 509.735565,1118.475952 508.677734,1127.306396 
	C507.888275,1133.896729 507.721985,1140.592041 507.716187,1147.240967 
	C507.652985,1219.891235 507.713959,1292.541626 507.636047,1365.191895 
	C507.623932,1376.511230 507.207123,1387.835449 506.723846,1399.146484 
	C506.554535,1403.109985 505.517151,1407.028809 505.059723,1410.989136 
	C503.709198,1422.680664 496.361969,1428.571045 485.556763,1430.586548 
	C479.698120,1431.679199 473.649384,1432.204346 467.685394,1432.212158 
	C392.369293,1432.310181 317.052704,1432.357056 241.737122,1432.126953 
	C233.843735,1432.102783 225.887802,1430.589722 218.084579,1429.113647 
	C210.061432,1427.595947 205.333771,1422.069458 203.828094,1414.217529 
	C202.578842,1407.702881 201.831635,1401.068359 201.276291,1394.452271 
	C200.887390,1389.818970 201.193787,1385.127319 201.193787,1380.461670 
	C201.193436,1111.189087 201.171402,841.916443 201.280853,572.643921 
	C201.284897,562.701355 201.908783,552.656250 203.430054,542.842896 
	C205.382217,530.249878 210.369247,525.806396 223.147141,524.183411 
	C231.054626,523.178955 239.088181,522.787109 247.066055,522.776184 
	C319.716217,522.676453 392.366608,522.685181 465.016785,522.778503 
	C472.329071,522.787903 479.666718,523.305542 486.945587,524.048218 
	C496.540649,525.027161 503.182281,529.831543 504.742676,539.897095 
	C505.654602,545.779724 506.669769,551.724854 506.721680,557.649902 
	C507.159637,607.620667 507.442566,657.593079 507.653717,707.565491 
	C507.774780,736.225159 507.629761,764.885925 507.710632,793.545898 
	C507.729431,800.203186 507.752197,806.909668 508.529510,813.504395 
	C509.818146,824.436707 515.454407,830.074402 526.440918,831.704163 
	C531.021667,832.383728 535.743103,832.252136 540.400696,832.255127 
	C592.388977,832.288574 644.377380,832.320923 696.365417,832.214539 
	C702.325562,832.202332 708.400879,831.918701 714.213196,830.733032 
	C721.286316,829.290161 726.152405,824.572754 727.130859,817.214172 
	C728.004883,810.640625 728.270081,803.945618 728.277100,797.303650 
	C728.352783,725.319946 728.275818,653.336121 728.375122,581.352478 
	C728.390747,570.036072 728.473022,558.660461 729.593506,547.418762 
	C731.296814,530.329529 736.622742,525.297424 753.335632,523.757629 
	C761.279968,523.025635 769.292908,522.768494 777.275269,522.759705 
	C845.259827,522.684631 913.244629,522.664856 981.229187,522.769287 
	C991.877686,522.785645 1002.546692,523.215637 1013.167175,523.990051 
	C1024.567627,524.821289 1030.465942,529.812744 1031.949341,540.882690 
	C1033.535522,552.720093 1034.674805,564.719421 1034.689697,576.649719 
	C1034.869751,721.950134 1034.806641,867.250732 1034.806641,1012.551331 
	C1034.806641,1132.524292 1034.867065,1252.497437 1034.717407,1372.470093 
	C1034.701660,1385.089722 1033.831299,1397.743408 1032.657227,1410.316040 
	C1031.544922,1422.225830 1027.489014,1427.121216 1015.693176,1429.177246 
	C1004.606873,1431.109619 993.225220,1432.094604 981.965881,1432.159424 
	C929.979553,1432.458984 877.990479,1432.291992 824.003296,1432.292236 
z"/>
<path fill="#FEFEFE" opacity="1.000000" stroke="none" 
	d="
M4426.793457,1383.659912 
	C4426.793457,1319.060425 4426.767090,1256.412231 4426.829590,1193.764038 
	C4426.836426,1186.445312 4427.394043,1179.128784 4427.590332,1171.808350 
	C4427.893066,1160.480225 4432.671875,1151.219727 4440.868652,1143.729126 
	C4449.224609,1136.093384 4457.710938,1128.584595 4466.398926,1121.330078 
	C4586.581543,1020.976501 4706.811523,920.679932 4827.012207,820.348633 
	C4831.093750,816.942200 4835.138672,813.466858 4838.935059,809.752563 
	C4841.877441,806.873413 4839.780762,801.429443 4835.500977,800.595215 
	C4832.907715,800.089722 4830.237305,799.745361 4827.600098,799.736328 
	C4804.953125,799.658813 4782.305664,799.664734 4759.658691,799.663818 
	C4662.354004,799.659912 4565.049316,799.679565 4467.744629,799.623840 
	C4461.098145,799.620056 4454.347168,799.707458 4447.827637,798.638000 
	C4434.520508,796.455200 4429.404785,790.893188 4427.937988,777.590271 
	C4427.136230,770.323181 4426.849121,762.966736 4426.840332,755.649963 
	C4426.760254,691.668945 4426.739746,627.687622 4426.866211,563.706726 
	C4426.882324,555.737549 4427.380859,547.700684 4428.520996,539.820435 
	C4429.808105,530.926147 4435.627930,525.359680 4444.467773,524.360046 
	C4454.369629,523.240234 4464.395508,522.799622 4474.368164,522.793518 
	C4624.990723,522.701355 4775.612793,522.729187 4926.235352,522.729065 
	C5020.874023,522.728943 5115.513184,522.693359 5210.151855,522.781860 
	C5220.132324,522.791199 5230.123535,523.356384 5240.089355,523.982056 
	C5250.047852,524.607361 5256.127441,530.408691 5258.020996,539.870911 
	C5259.448730,547.003906 5260.211914,554.390320 5260.229492,561.666504 
	C5260.391602,629.646057 5260.254395,697.626282 5260.374023,765.606079 
	C5260.413574,787.974976 5250.451172,805.276123 5233.945312,819.290649 
	C5217.694824,833.088684 5201.141113,846.529175 5184.763184,860.177979 
	C5079.329590,948.042236 4973.882812,1035.890991 4868.532227,1123.854492 
	C4860.495605,1130.564697 4851.415527,1136.501831 4846.237305,1147.488281 
	C4850.447754,1149.000244 4853.954590,1150.954956 4857.648926,1151.419434 
	C4862.900879,1152.079590 4868.290527,1151.672241 4873.621582,1151.672485 
	C4985.588379,1151.678101 5097.555664,1151.656982 5209.522461,1151.713013 
	C5218.844238,1151.717651 5228.226562,1151.663818 5237.473145,1152.649658 
	C5250.321777,1154.019409 5256.730957,1160.002563 5259.024414,1172.531372 
	C5260.214355,1179.030640 5260.274414,1185.796753 5260.283203,1192.442993 
	C5260.367188,1257.756958 5260.418945,1323.071289 5260.229980,1388.384888 
	C5260.205566,1396.986450 5259.286621,1405.669434 5257.854980,1414.158447 
	C5256.536133,1421.975830 5251.510254,1427.275024 5243.501953,1429.019531 
	C5238.323242,1430.147461 5233.093750,1431.307129 5227.829590,1431.709229 
	C5220.534180,1432.266479 5213.185059,1432.262695 5205.858887,1432.263428 
	C4965.929688,1432.287476 4726.000000,1432.316895 4486.070801,1432.188843 
	C4473.456543,1432.182129 4460.703613,1431.723755 4448.265625,1429.830200 
	C4432.967773,1427.501099 4429.062500,1422.535522 4427.718750,1407.565674 
	C4427.063965,1400.278687 4427.080566,1392.931396 4426.793457,1383.659912 
z"/>
<path fill="#0B0B0B" opacity="1.000000" stroke="none" 
	d="
M3964.693115,1606.165039 
	C3962.630615,1600.327026 3960.453125,1595.938965 3960.375732,1591.514038 
	C3960.007568,1570.459961 3960.210938,1549.395996 3960.210938,1526.696045 
	C3963.317627,1527.934937 3966.451660,1528.166504 3967.272705,1529.665161 
	C3978.997559,1551.069092 3990.441895,1572.627686 4001.852783,1594.202393 
	C4003.062988,1596.490723 4003.906006,1599.058228 4004.448242,1601.596802 
	C4005.480713,1606.429077 4003.233887,1610.881470 3998.553711,1612.865723 
	C3986.515869,1617.969116 3975.409912,1616.487549 3964.693115,1606.165039 
z"/>
<path fill="#0D0D0D" opacity="1.000000" stroke="none" 
	d="
M3852.123047,1594.056396 
	C3851.719482,1603.704102 3849.049316,1610.231079 3841.161377,1613.136719 
	C3831.571289,1616.669434 3821.828613,1617.768677 3812.494873,1612.311523 
	C3808.700195,1610.092896 3807.245361,1606.417114 3808.484863,1602.102905 
	C3809.210205,1599.578857 3810.261963,1597.108765 3811.466309,1594.768433 
	C3821.447510,1575.377319 3831.421387,1555.981445 3841.598633,1536.693237 
	C3843.474365,1533.138306 3846.195068,1529.896240 3852.266357,1533.861206 
	C3852.266357,1552.759155 3852.266357,1572.514648 3852.123047,1594.056396 
z"/>
<path fill="#070606" opacity="1.000000" stroke="none" 
	d="
M3077.203125,826.895569 
	C3080.465576,841.345215 3076.934814,853.591919 3073.598877,865.715027 
	C3070.989014,875.199463 3064.370850,881.741028 3055.530762,885.932251 
	C3043.334717,891.714600 3030.428955,894.726501 3016.960449,894.757507 
	C2971.016113,894.863403 2925.071533,894.796814 2879.126953,894.795532 
	C2878.461182,894.795532 2877.793701,894.815613 2877.129639,894.780457 
	C2853.871826,893.550232 2849.799561,889.882385 2849.122803,865.963989 
	C2848.502197,844.031921 2848.532227,822.048523 2849.277588,800.121704 
	C2849.832275,783.799866 2854.524170,778.510437 2870.802734,777.314148 
	C2889.347412,775.951477 2908.040771,776.508728 2926.670410,776.418884 
	C2949.280762,776.309875 2971.892578,776.410339 2994.503662,776.391663 
	C3002.492920,776.385071 3010.491699,776.016663 3018.469727,776.290955 
	C3051.404785,777.423096 3069.700684,792.829651 3077.203125,826.895569 
z"/>
<path fill="#020202" opacity="1.000000" stroke="none" 
	d="
M5879.505859,1161.136475 
	C5851.621582,1149.448730 5833.195801,1130.024170 5820.966309,1104.552124 
	C5805.233887,1071.783691 5795.497559,1037.401367 5795.712891,1000.766663 
	C5795.860840,975.529785 5793.454590,950.097839 5799.689453,925.202271 
	C5802.915039,912.323547 5805.970215,899.323425 5810.403320,886.839966 
	C5825.171875,845.255920 5853.897461,817.504578 5895.773926,803.712524 
	C5925.843262,793.809265 5956.686523,789.678711 5988.210938,794.517883 
	C6004.610352,797.035278 6021.094727,799.692444 6037.098633,803.948914 
	C6070.497070,812.831848 6094.411621,833.231689 6109.096191,864.953430 
	C6125.771484,900.976868 6136.654297,938.397522 6138.418457,978.087463 
	C6138.945312,989.941284 6137.198730,1001.980530 6135.640137,1013.822510 
	C6133.385254,1030.957520 6130.937988,1048.107666 6127.541992,1065.044678 
	C6117.355469,1115.846313 6087.964355,1149.640259 6037.731445,1164.351929 
	C6028.807129,1166.965576 6019.864746,1169.735962 6010.743652,1171.419434 
	C5966.663086,1179.555298 5923.337402,1176.454468 5879.505859,1161.136475 
z"/>
<path fill="#020202" opacity="1.000000" stroke="none" 
	d="
M1887.475952,872.795898 
	C1896.962402,895.038574 1904.008789,916.397644 1908.619873,938.674011 
	C1913.402588,961.780212 1914.249023,984.990479 1911.393066,1008.161743 
	C1908.711060,1029.921265 1905.048218,1051.647827 1900.264893,1073.041870 
	C1890.868652,1115.066040 1865.555298,1144.350708 1825.447144,1159.939453 
	C1788.206665,1174.413330 1749.475952,1179.148071 1709.756592,1173.921753 
	C1697.904663,1172.362305 1686.056519,1170.381592 1674.414429,1167.694336 
	C1640.804321,1159.936157 1615.588013,1140.988159 1599.010498,1110.469727 
	C1585.505615,1085.607666 1576.563599,1059.085205 1572.946655,1031.295166 
	C1568.050293,993.673584 1567.956055,955.826782 1575.963623,918.426331 
	C1578.046875,908.695923 1580.870239,899.062134 1584.142944,889.658691 
	C1600.514282,842.619812 1633.468994,813.444397 1681.200928,800.430298 
	C1727.638306,787.769287 1773.594971,791.696228 1818.814697,805.846619 
	C1846.633423,814.551819 1867.578857,832.538635 1880.980713,858.763245 
	C1883.095581,862.901611 1884.974609,867.160645 1887.475952,872.795898 
z"/>
</svg>